HIERARCHY
ROOT Hips
{
	OFFSET -0.179506 -22.333345 2.821913
	CHANNELS 6 Xposition Yposition Zposition Zrotation Yrotation Xrotation 
	JOINT LeftUpLeg
	{
		OFFSET 6.951974 -9.140623 -0.681533
		CHANNELS 3 Zrotation Yrotation Xrotation
		JOINT LeftLeg
		{
			OFFSET 3.427654 -37.519855 -0.449580
			CHANNELS 3 Zrotation Yrotation Xrotation
			JOINT LeftFoot
			{
				OFFSET -1.359570 -39.796059 -4.369333
				CHANNELS 3 Zrotation Yrotation Xrotation
				JOINT LeftToe
				{
					OFFSET 2.635814 -5.579078 11.928840
					CHANNELS 3 Zrotation Yrotation Xrotation
					End Site
					{
						OFFSET 0.000000 0.000000 0.000000
					}
				}
			}
		}
	}
	JOINT RightUpLeg
	{
		OFFSET -6.767048 -9.052170 -0.431982
		CHANNELS 3 Zrotation Yrotation Xrotation
		JOINT RightLeg
		{
			OFFSET -3.829005 -38.256897 -0.885003
			CHANNELS 3 Zrotation Yrotation Xrotation
			JOINT RightFoot
			{
				OFFSET 1.577377 -39.841461 -4.231180
				CHANNELS 3 Zrotation Yrotation Xrotation
				JOINT RightToe
				{
					OFFSET -2.537174 -4.814398 12.334795
					CHANNELS 3 Zrotation Yrotation Xrotation
					End Site
					{
						OFFSET 0.000000 0.000000 0.000000
					}
				}
			}
		}
	}
	JOINT Spine
	{
		OFFSET -0.253288 10.896323 -2.669631
		CHANNELS 3 Zrotation Yrotation Xrotation
		JOINT Spine1
		{
			OFFSET 0.548704 13.518043 0.109247
			CHANNELS 3 Zrotation Yrotation Xrotation
			JOINT Spine2
			{
				OFFSET 0.145701 5.292222 2.542457
				CHANNELS 3 Zrotation Yrotation Xrotation
				JOINT Neck
				{
					OFFSET -0.277840 21.387037 -4.285703
					CHANNELS 3 Zrotation Yrotation Xrotation
					JOINT Head
					{
						OFFSET 0.515184 6.496960 5.134897
						CHANNELS 3 Zrotation Yrotation Xrotation
						End Site
						{
							OFFSET 0.000000 0.000000 0.000000
						}
					}
				}
				JOINT LeftShoulder
				{
					OFFSET 7.884473 12.174932 -3.408961
					CHANNELS 3 Zrotation Yrotation Xrotation
					JOINT LeftArm
					{
						OFFSET 9.097692 3.046888 -0.886815
						CHANNELS 3 Zrotation Yrotation Xrotation
						JOINT LeftForeArm
						{
							OFFSET 25.961220 -1.277207 -2.745643
							CHANNELS 3 Zrotation Yrotation Xrotation
							JOINT LeftHand
							{
								OFFSET 24.923361 0.898606 -0.117091
								CHANNELS 3 Zrotation Yrotation Xrotation
								End Site
								{
									OFFSET 0.000000 0.000000 0.000000
								}
							}
						}
					}
				}
				JOINT RightShoulder
				{
					OFFSET -8.175920 11.883285 -3.861528
					CHANNELS 3 Zrotation Yrotation Xrotation
					JOINT RightArm
					{
						OFFSET -9.601238 3.255117 -0.914307
						CHANNELS 3 Zrotation Yrotation Xrotation
						JOINT RightForeArm
						{
							OFFSET -25.374195 -1.332924 -2.140099
							CHANNELS 3 Zrotation Yrotation Xrotation
							JOINT RightHand
							{
								OFFSET -25.529810 0.777228 -0.555919
								CHANNELS 3 Zrotation Yrotation Xrotation
								End Site
								{
									OFFSET 0.000000 0.000000 0.000000
								}
							}
						}
					}
				}
			}
		}
	}
}
MOTION
Frames: 15
Frame Time: 0.033333
52.485558 48.187004 94.025246 -177.098170 0.811666 87.139250 3.946620 3.957659 4.267535 -3.915312 -3.152955 -2.691232 0.127175 8.402778 -1.952126 nan nan nan -3.211145 -4.821998 3.193563 2.343584 -2.394753 -1.396061 3.599700 -6.688222 -4.981798 nan nan nan 0.504797 0.818952 6.504702 2.138082 -3.999807 3.095819 1.334560 -0.791173 -4.396264 -0.675267 2.146766 0.349141 2.133730 2.561971 10.233913 -30.878933 -3.924819 3.561026 -53.835205 -7.481870 16.655906 1.090685 -19.062386 10.364615 -4.651438 -7.505004 2.587910 31.212683 4.930846 4.610510 51.732711 4.512264 15.104726 -9.382674 20.757506 -2.922297 8.356234 6.585320 -1.888741 
52.491470 48.173626 93.996445 -177.218795 0.746058 87.385976 3.880333 3.824792 4.068834 -3.985202 -3.235035 -2.785693 0.145751 8.436959 -2.057972 nan nan nan -3.244218 -4.683538 2.849974 2.317158 -2.331238 -1.269677 3.671030 -6.776669 -4.999462 nan nan nan 0.413055 0.856694 6.125656 2.117624 -3.903531 3.242167 1.290822 -0.802853 -4.170525 -0.311670 1.675772 -0.139953 2.329644 1.784935 10.421190 -30.669189 -3.788450 3.400254 -54.026458 -7.663518 16.774731 1.257791 -19.115973 10.509137 -4.768036 -7.550066 2.663423 31.140270 4.842439 4.433123 51.985163 4.577329 15.235120 -9.580460 20.867059 -2.720576 8.285133 6.481240 -1.962923 
52.512066 48.804390 93.216881 -177.779599 0.165377 90.409207 3.235477 2.989368 1.750360 -4.230393 -3.170144 -3.974179 -0.139113 8.810667 -1.351595 nan nan nan -4.051997 -3.625679 0.097715 2.765391 -2.533713 -1.781868 4.228991 -7.114272 -5.047234 nan nan nan -0.126831 0.981065 0.244213 1.889698 -3.844902 5.432879 0.946341 -0.674633 -3.852629 -0.502056 2.945778 0.874731 2.744834 0.597467 9.960417 -28.717542 -2.773572 2.973545 -55.883741 -7.590870 17.861487 2.802175 -17.477257 13.949823 -10.450791 -10.573631 7.129685 30.543462 4.246137 5.131340 53.151906 4.976111 14.718583 -10.105539 21.056004 -1.228762 9.793461 7.783887 -1.418533 
52.540905 48.922482 93.028290 -177.805817 0.162672 90.539734 3.272909 2.967777 1.678167 -4.198296 -3.195246 -4.094193 -0.150327 8.863759 -1.590019 nan nan nan -4.138549 -3.638850 0.015589 2.767522 -2.513532 -1.846002 4.422898 -7.165230 -4.862342 nan nan nan -0.034425 0.975026 0.137457 1.834766 -3.809837 5.454258 0.901634 -0.670354 -3.763393 -0.436931 2.885007 0.791005 2.728076 0.591396 9.978416 -28.593243 -2.889616 3.009583 -56.075898 -7.788223 17.945492 2.771804 -17.191122 14.046876 -10.543773 -10.704667 7.125914 30.313168 4.264209 5.105929 53.411398 5.094369 14.748502 -10.155198 21.014359 -1.285534 9.685248 7.809028 -1.606959 
52.536819 49.045353 92.924301 -177.648345 0.125526 90.426995 3.241469 3.011393 1.824011 -4.246655 -3.205813 -4.119948 -0.197172 8.803159 -1.660075 nan nan nan -4.322231 -3.833665 0.253464 2.967901 -2.672928 -1.955125 4.476547 -7.230747 -4.795518 nan nan nan 0.039559 0.958250 0.307279 1.803920 -3.891653 5.409427 0.875557 -0.755323 -3.706621 -0.376547 2.768451 0.627518 2.566563 0.541448 10.139277 -28.725026 -2.984421 3.158678 -55.966002 -7.866541 17.835272 2.665748 -17.218307 14.105483 -10.369306 -10.747267 7.054096 30.282256 4.264179 5.106136 53.412274 5.127805 14.744754 -10.149685 21.014641 -1.207000 9.567227 7.687516 -1.513022 
52.480110 49.189068 92.817192 -177.191958 -0.000210 90.242416 3.093780 2.958476 2.008499 -4.387537 -3.442079 -4.103952 -0.321017 8.591386 -1.685668 nan nan nan -4.752518 -4.277827 0.734720 3.497690 -2.998274 -2.210525 4.531512 -7.378318 -4.832600 nan nan nan 0.172198 0.854596 0.463031 1.781861 -4.183943 5.526798 0.818999 -0.981377 -3.545365 -0.205969 2.576395 -0.337783 2.360885 0.249589 10.314541 -28.851060 -2.880030 3.219594 -55.802198 -7.966333 17.528517 2.463879 -17.552219 14.531003 -10.284372 -10.970168 7.001870 30.043520 4.184356 5.075511 53.594450 5.301865 14.631154 -10.246404 21.262697 -0.950415 9.574418 7.501737 -1.446388 
52.462917 49.213013 92.764481 -177.331201 0.033268 90.260798 3.145889 2.628283 2.119457 -4.548909 -3.496351 -4.353625 -0.422845 8.501904 -1.590630 nan nan nan -4.819617 -4.120024 0.674613 3.724973 -3.406342 -2.211744 4.534491 -7.229733 -4.790576 nan nan nan 0.324801 0.856014 0.633462 1.674688 -4.071095 5.197479 1.018607 -1.070498 -3.344344 -0.386416 2.703395 -0.468891 2.484532 0.068502 10.233504 -28.637592 -2.773430 3.519629 -56.488035 -8.367638 16.212167 3.303021 -18.518246 11.830722 -11.765829 -12.898738 2.700866 29.813654 4.361996 5.430816 53.850473 5.455627 14.408410 -10.674861 21.310128 -1.069187 10.132407 7.929679 -2.430387 
52.483955 49.358349 92.705872 -177.502854 -0.034414 90.155824 3.130970 2.658786 2.509129 -4.579723 -3.490710 -4.644984 -0.487269 8.533934 -1.520975 nan nan nan -4.877750 -4.050333 1.048468 3.687487 -3.317826 -2.587820 4.610634 -7.177485 -4.661604 nan nan nan 0.233191 0.858888 0.503113 1.615528 -3.990949 5.380300 1.062332 -1.032272 -3.290770 -0.377279 2.824885 -0.307932 2.572430 0.042808 9.974994 -28.668906 -2.774298 3.554905 -56.466593 -8.427720 16.254856 3.400606 -18.084527 12.576329 -12.404845 -13.656383 3.209940 29.850134 4.417626 5.495759 53.935785 5.491748 14.352570 -10.776414 21.125901 -0.894057 10.264165 8.190386 -2.403649 
52.498352 49.461723 92.659538 -177.536922 -0.082114 90.063118 3.123147 2.645802 2.766775 -4.624565 -3.518355 -4.793378 -0.525881 8.510991 -1.473745 nan nan nan -4.940625 -4.039175 1.342339 3.708557 -3.285717 -2.826191 4.639187 -7.197076 -4.597476 nan nan nan 0.165191 0.825956 0.472555 1.572322 -3.944031 5.471742 1.092991 -1.020190 -3.242232 -0.362274 2.857195 -0.267483 2.599612 0.024038 9.908271 -28.757780 -2.782867 3.608851 -56.421330 -8.551297 16.174083 3.459381 -17.811946 12.902151 -12.635321 -13.975322 3.416623 29.890357 4.466357 5.561642 53.972705 5.530295 14.338839 -10.824681 21.011845 -0.753735 10.274683 8.269859 -2.265669 
52.501499 49.482567 92.626190 -177.513029 -0.095410 90.097941 3.117097 2.616510 2.722592 -4.657601 -3.543762 -4.764209 -0.524963 8.475775 -1.442543 nan nan nan -4.967844 -4.027886 1.311556 3.736715 -3.269919 -2.811066 4.622250 -7.236433 -4.576448 nan nan nan 0.154748 0.829831 0.495460 1.580866 -3.937929 5.461698 1.099079 -1.028440 -3.270355 -0.389790 2.821600 -0.306295 2.614490 0.006041 9.907695 -28.849919 -2.844376 3.642020 -56.407088 -8.628650 16.160485 3.532138 -17.649923 12.816724 -12.728268 -14.045010 3.454676 29.899218 4.513527 5.551967 53.978489 5.519857 14.364422 -10.857835 20.966170 -0.728233 10.328016 8.257108 -2.166090 
52.495281 49.500587 92.603912 -177.456012 -0.092193 90.122103 3.119246 2.636535 2.675932 -4.662514 -3.497415 -4.704802 -0.537615 8.454915 -1.416958 nan nan nan -4.993264 -4.041349 1.325537 3.767616 -3.299972 -2.861907 4.607368 -7.276311 -4.592016 nan nan nan 0.155155 0.853116 0.497912 1.607382 -3.973595 5.492948 1.114156 -1.064715 -3.311198 -0.419480 2.838016 -0.314274 2.604039 -0.034677 9.899101 -28.891876 -2.973150 3.715179 -56.397256 -8.674756 16.116977 3.509181 -17.547481 12.708760 -12.788433 -14.040277 3.525798 29.906665 4.548053 5.553553 53.954974 5.496829 14.349471 -10.899178 21.005194 -0.690844 10.327073 8.245936 -1.999451 
52.496857 49.493168 92.589844 -177.527038 -0.063888 90.153943 3.163592 2.694549 2.640228 -4.675132 -3.394064 -4.672245 -0.527461 8.480719 -1.413307 nan nan nan -4.972698 -4.010756 1.229534 3.769179 -3.299933 -2.779765 4.593889 -7.250599 -4.644877 nan nan nan 0.191587 0.925026 0.545239 1.632479 -3.946682 5.483727 1.118035 -1.089093 -3.371203 -0.428352 2.864293 -0.369601 2.564676 -0.027016 10.001706 -28.950996 -3.058747 3.759666 -56.371250 -8.680844 16.109142 3.462424 -17.561477 12.604514 -12.706122 -14.019525 3.496837 29.938716 4.559569 5.569469 53.920145 5.509385 14.325005 -10.906920 21.020651 -0.744204 10.318071 8.230210 -2.007696 
52.512508 49.456635 92.583405 -177.700536 -0.030218 90.206470 3.204364 2.677375 2.625517 -4.700968 -3.483520 -4.744734 -0.479419 8.487493 -1.429061 nan nan nan -4.908996 -3.926741 1.000235 3.738775 -3.251754 -2.559738 4.577279 -7.201126 -4.668344 nan nan nan 0.243381 0.989709 0.661590 1.643536 -3.871043 5.389324 1.111624 -1.069659 -3.434531 -0.465650 2.789288 -0.468617 2.545936 -0.021346 10.247804 -29.032859 -3.093987 3.772419 -56.320363 -8.666903 16.164916 3.477099 -17.567437 12.522516 -12.615811 -14.021585 3.426026 29.972660 4.606648 5.603068 53.918949 5.530139 14.331827 -10.946542 20.994273 -0.847307 10.383196 8.250157 -2.200729 
52.529301 49.472511 92.570107 -177.741451 -0.032694 90.174003 3.200911 2.629341 2.738275 -4.709809 -3.628322 -4.872674 -0.467329 8.459405 -1.447992 nan nan nan -4.895048 -3.921633 1.044485 3.734834 -3.249605 -2.549299 4.578997 -7.207995 -4.716795 nan nan nan 0.245407 0.974318 0.772591 1.626852 -3.847487 5.272986 1.130297 -1.058272 -3.380926 -0.471506 2.757599 -0.500635 2.546453 0.019259 10.338024 -29.073343 -3.105331 3.805152 -56.301059 -8.681828 16.149722 3.496676 -17.560812 12.558240 -12.499928 -14.050048 3.318123 29.974915 4.629329 5.625275 53.990137 5.537084 14.343922 -10.990466 20.991959 -0.881977 10.305041 8.281302 -2.379143 
52.533962 49.538345 92.549461 -177.647459 -0.078758 90.094030 3.139096 2.597563 2.873867 -4.675255 -3.676082 -4.899935 -0.485332 8.421677 -1.444172 nan nan nan -4.965023 -3.996563 1.298396 3.767311 -3.277471 -2.741116 4.596684 -7.224270 -4.687804 nan nan nan 0.217162 0.904765 0.793396 1.590697 -3.909665 5.257884 1.134287 -1.041353 -3.313733 -0.456690 2.761135 -0.486731 2.537388 -0.001613 10.379608 -29.082732 -3.134989 3.867226 -56.301067 -8.728085 16.098315 3.514485 -17.472070 12.619374 -12.501863 -14.037911 3.270236 29.991787 4.647400 5.665846 54.051257 5.536909 14.337641 -11.040419 20.983559 -0.921059 10.287907 8.283996 -2.441328 
